<?xml version="1.0" encoding="UTF-8" standalone="no"?>
<!-- Created with Inkscape (http://www.inkscape.org/) -->

<svg
   xmlns:dc="http://purl.org/dc/elements/1.1/"
   xmlns:cc="http://creativecommons.org/ns#"
   xmlns:rdf="http://www.w3.org/1999/02/22-rdf-syntax-ns#"
   xmlns:svg="http://www.w3.org/2000/svg"
   xmlns="http://www.w3.org/2000/svg"
   xmlns:inkscape="http://www.inkscape.org/namespaces/inkscape"
   version="1.1"
   width="411.66251"
   height="417.86249"
   id="svg2"
   xml:space="preserve"><metadata
     id="metadata8"><rdf:RDF><cc:Work
         rdf:about=""><dc:format>image/svg+xml</dc:format><dc:type
           rdf:resource="http://purl.org/dc/dcmitype/StillImage" /></cc:Work></rdf:RDF></metadata><defs
     id="defs6"><clipPath
       id="clipPath18"><path
         d="m 0,0 3293,0 0,3342.94 -3293,0 L 0,0 z"
         inkscape:connector-curvature="0"
         id="path20" /></clipPath></defs><g
     transform="matrix(1.25,0,0,-1.25,0,417.8625)"
     id="g10"><g
       transform="scale(0.1,0.1)"
       id="g12"><g
         id="g14"><g
           clip-path="url(#clipPath18)"
           id="g16"><path
             d="m 699.086,2311.23 c -3.945,1.24 -8.445,3.56 -11.57,6.63 -10.059,10.06 -10.059,26.36 0,36.41 l 518.164,0 c 10.01,-10.05 10.01,-26.35 0,-36.41 -3.65,-3.64 -8.69,-6.08 -13.41,-7.1 l -94.42,-15.39 c -30.84,-5.97 -54.08,-33.11 -54.1,-65.67 l 0,-878.98 c 0,-77.53 13.99,-174 36.15,-244.76 22.17,-70.75 86.78,-147.741 165.16,-180.812 74.99,-31.476 170.72,-50.718 274.3,-50.718 109.34,0 209.2,21.14 285.94,55.82 75.95,33.93 135.04,99.98 160,180.31 21.37,69.87 34.07,152.45 34.07,240.16 0,0 0,778.73 0,1021.53 0,221.09 108.64,294.11 279.31,294.11 170.68,0 306.73,0 306.73,0 11.36,-11.38 11.36,-29.78 0,-41.15 -4.15,-4.12 -9.87,-6.91 -15.18,-8.02 l -106.93,-14.83 c -63.28,-11.08 -79.85,-36.24 -79.85,-102.26 l -0.64,-115.93 0,-1050.91 c 0,-67.13 -6.12,-132.51 -16.52,-192.61 -34.74,-196.259 -185.15,-353.439 -377.72,-398.56 -115.93,-27.621 -248,-42.758 -387.61,-42.758 -140.04,0 -272.83,15.707 -388.95,43.5 -186.46,45.898 -332.698,197.289 -370.725,386.748 -13.262,66.95 -21.105,140.48 -21.105,216.8 l 0.097,883.32 c 0,31.71 -22.507,58.5 -52.156,65.37"
             inkscape:connector-curvature="0"
             id="path22"
             style="fill:#ef6518;fill-opacity:1;fill-rule:nonzero;stroke:none" /></g></g></g></g></svg>